<svg width="138" height="38" viewBox="0 0 138 38" fill="none" xmlns="http://www.w3.org/2000/svg">
<path d="M16.1527 29.1497L6.33589 36.5936C5.9882 36.8573 5.56382 37 5.12746 37H135C136.105 37 137 36.1046 137 35V33.7973C137 32.6927 136.105 31.7973 135 31.7973H134.729C133.736 31.7973 132.894 31.0689 132.75 30.0864L129.302 6.48869C129.031 4.63515 126.589 4.1377 125.615 5.73759L120.143 14.7227C119.508 15.7656 118.095 16.0009 117.156 15.2201L113.681 12.3297C112.789 11.5879 111.456 11.7578 110.778 12.6994L105.847 19.5559C105.169 20.4975 103.836 20.6674 102.944 19.9257L98.8014 16.4797C98.1368 15.9269 97.1923 15.8637 96.46 16.3228L86.7747 22.3953C86.6132 22.4966 86.4381 22.5742 86.2547 22.6259L82.8125 23.5957L77.2181 25.0623C77.0526 25.1057 76.8821 25.1277 76.711 25.1277H63.5152C63.2778 25.1277 63.0423 25.0854 62.8197 25.0029L57.082 22.875C56.5233 22.6679 55.9014 22.7206 55.3856 23.0188L49.1694 26.6122C48.5671 26.9604 47.8272 26.9706 47.2155 26.6391L42.9053 24.3032C42.2296 23.937 41.4039 23.9904 40.781 24.4405L36.3291 27.6574C35.7536 28.0732 35.0008 28.1528 34.3511 27.8664L22.6973 22.7294C21.8207 22.3429 20.7931 22.6324 20.2472 23.4196L16.5876 28.6959C16.4675 28.8692 16.3207 29.0223 16.1527 29.1497Z" fill="url(#paint0_linear_34_2776)"/>
<path d="M1 37H5.12406C5.5625 37 5.9888 36.8559 6.33736 36.5899L16.1037 29.1371C16.3036 28.9846 16.473 28.7957 16.6029 28.5804L20.0572 22.855C20.5913 21.9699 21.7119 21.6376 22.6422 22.0886L34.321 27.7505C34.9852 28.0725 35.7728 28.0025 36.3698 27.5684L40.7768 24.3636C41.4017 23.9092 42.2324 23.8553 42.9107 24.2253L47.2107 26.5705C47.8248 26.9055 48.5694 26.8952 49.174 26.5434L55.3818 22.932C55.8997 22.6307 56.5255 22.5774 57.0868 22.7869L62.818 24.9258C63.0417 25.0093 63.2785 25.0521 63.5173 25.0521H70.0625H76.7021C76.8791 25.0521 77.0553 25.0286 77.2261 24.9822L86.2177 22.5411C86.4254 22.4847 86.6226 22.3952 86.8017 22.276L96.4279 15.8695C97.173 15.3736 98.1569 15.4332 98.8368 16.0153L103.268 19.8094C104.186 20.5952 105.585 20.3941 106.245 19.3818L110.733 12.4906C111.464 11.3683 113.071 11.2678 113.936 12.2903L116.684 15.5383C117.6 16.6207 119.321 16.4325 119.981 15.1778L125.165 5.32702C126.061 3.62439 128.609 4.04525 128.91 5.94557L132.733 30.077C132.887 31.0487 133.724 31.7641 134.708 31.7641H137" stroke="#58BD7D" stroke-width="2" stroke-linecap="round" stroke-linejoin="round"/>
<defs>
<linearGradient id="paint0_linear_34_2776" x1="69.8" y1="-64.8868" x2="69.2233" y2="37.0013" gradientUnits="userSpaceOnUse">
<stop stop-color="#45B36B"/>
<stop offset="1" stop-color="#45B36B" stop-opacity="0"/>
</linearGradient>
</defs>
</svg>
