<svg width="75" height="24" viewBox="0 0 75 24" fill="none" xmlns="http://www.w3.org/2000/svg">
<path d="M14 18L11.1667 15.1617L14 18ZM-nan -nanL12.7368 11.3684C12.7368 12.7922 12.1712 14.1577 11.1645 15.1645C10.1577 16.1712 8.79221 16.7368 7.36842 16.7368C5.94463 16.7368 4.57915 16.1712 3.57237 15.1645C2.5656 14.1577 2 12.7922 2 11.3684C2 9.94463 2.5656 8.57915 3.57237 7.57237C4.57915 6.5656 5.94463 6 7.36842 6C8.79221 6 10.1577 6.5656 11.1645 7.57237C12.1712 8.57915 12.7368 9.94463 12.7368 11.3684L-nan -nanL-nan -nanZ" stroke="#B1B5C3" stroke-width="1.2" stroke-linecap="round" stroke-linejoin="round"/>
<path d="M28.752 17.192C27.9307 17.192 27.216 17.0427 26.608 16.744C26 16.4453 25.5307 16.0293 25.2 15.496C24.8693 14.9627 24.704 14.344 24.704 13.64H26.112C26.112 14.0773 26.2133 14.4827 26.416 14.856C26.6187 15.2187 26.912 15.512 27.296 15.736C27.6907 15.9493 28.176 16.056 28.752 16.056C29.5093 16.056 30.096 15.8747 30.512 15.512C30.928 15.1493 31.136 14.696 31.136 14.152C31.136 13.704 31.04 13.3467 30.848 13.08C30.656 12.8027 30.3947 12.5787 30.064 12.408C29.744 12.2373 29.3707 12.088 28.944 11.96C28.528 11.832 28.0907 11.688 27.632 11.528C26.768 11.2293 26.128 10.8613 25.712 10.424C25.296 9.976 25.088 9.39467 25.088 8.68C25.0773 8.08267 25.216 7.55467 25.504 7.096C25.792 6.62667 26.1973 6.264 26.72 6.008C27.2533 5.74133 27.8827 5.608 28.608 5.608C29.3227 5.608 29.9413 5.74133 30.464 6.008C30.9973 6.27467 31.408 6.64267 31.696 7.112C31.9947 7.58133 32.1493 8.11467 32.16 8.712H30.752C30.752 8.40267 30.672 8.09867 30.512 7.8C30.352 7.49067 30.1067 7.24 29.776 7.048C29.456 6.856 29.0507 6.76 28.56 6.76C27.952 6.74933 27.4507 6.904 27.056 7.224C26.672 7.544 26.48 7.98667 26.48 8.552C26.48 9.032 26.6133 9.4 26.88 9.656C27.1573 9.912 27.5413 10.1253 28.032 10.296C28.5227 10.456 29.088 10.6427 29.728 10.856C30.2613 11.048 30.7413 11.272 31.168 11.528C31.5947 11.784 31.9253 12.1147 32.16 12.52C32.4053 12.9253 32.528 13.4427 32.528 14.072C32.528 14.6053 32.3893 15.112 32.112 15.592C31.8347 16.0613 31.4133 16.4453 30.848 16.744C30.2933 17.0427 29.5947 17.192 28.752 17.192ZM37.922 17.192C37.1647 17.192 36.4927 17.0213 35.906 16.68C35.3193 16.328 34.8553 15.8427 34.514 15.224C34.1833 14.6053 34.018 13.8747 34.018 13.032C34.018 12.2 34.1833 11.4747 34.514 10.856C34.8447 10.2267 35.3033 9.74133 35.89 9.4C36.4873 9.048 37.1753 8.872 37.954 8.872C38.722 8.872 39.3833 9.048 39.938 9.4C40.5033 9.74133 40.9353 10.1947 41.234 10.76C41.5327 11.3253 41.682 11.9333 41.682 12.584C41.682 12.7013 41.6767 12.8187 41.666 12.936C41.666 13.0533 41.666 13.1867 41.666 13.336H35.346C35.378 13.944 35.5167 14.4507 35.762 14.856C36.018 15.2507 36.3327 15.5493 36.706 15.752C37.09 15.9547 37.4953 16.056 37.922 16.056C38.4767 16.056 38.9407 15.928 39.314 15.672C39.6873 15.416 39.9593 15.0693 40.13 14.632H41.458C41.2447 15.368 40.834 15.9813 40.226 16.472C39.6287 16.952 38.8607 17.192 37.922 17.192ZM37.922 10.008C37.282 10.008 36.7113 10.2053 36.21 10.6C35.7193 10.984 35.4367 11.5493 35.362 12.296H40.354C40.322 11.5813 40.0767 11.0213 39.618 10.616C39.1593 10.2107 38.594 10.008 37.922 10.008ZM46.1034 17.192C45.442 17.192 44.8927 17.08 44.4554 16.856C44.018 16.632 43.6927 16.3333 43.4794 15.96C43.266 15.5867 43.1594 15.1813 43.1594 14.744C43.1594 13.9333 43.4687 13.3093 44.0874 12.872C44.706 12.4347 45.5487 12.216 46.6154 12.216H48.7594V12.12C48.7594 11.4267 48.578 10.904 48.2154 10.552C47.8527 10.1893 47.3674 10.008 46.7594 10.008C46.2367 10.008 45.7834 10.1413 45.3994 10.408C45.026 10.664 44.7914 11.0427 44.6954 11.544H43.3194C43.3727 10.968 43.5647 10.4827 43.8954 10.088C44.2367 9.69333 44.658 9.39467 45.1594 9.192C45.6607 8.97867 46.194 8.872 46.7594 8.872C47.8687 8.872 48.7007 9.17067 49.2554 9.768C49.8207 10.3547 50.1034 11.1387 50.1034 12.12V17H48.9034L48.8234 15.576C48.5994 16.024 48.2687 16.408 47.8314 16.728C47.4047 17.0373 46.8287 17.192 46.1034 17.192ZM46.3114 16.056C46.8234 16.056 47.2607 15.9227 47.6234 15.656C47.9967 15.3893 48.2794 15.0427 48.4714 14.616C48.6634 14.1893 48.7594 13.7413 48.7594 13.272V13.256H46.7274C45.938 13.256 45.378 13.3947 45.0474 13.672C44.7274 13.9387 44.5674 14.2747 44.5674 14.68C44.5674 15.096 44.7167 15.432 45.0154 15.688C45.3247 15.9333 45.7567 16.056 46.3114 16.056ZM52.1196 17V9.064H53.3356L53.4476 10.584C53.693 10.0613 54.0663 9.64533 54.5676 9.336C55.069 9.02667 55.6876 8.872 56.4236 8.872V10.28H56.0556C55.5863 10.28 55.1543 10.3653 54.7596 10.536C54.365 10.696 54.0503 10.9733 53.8156 11.368C53.581 11.7627 53.4636 12.3067 53.4636 13V17H52.1196ZM61.2833 17.192C60.5259 17.192 59.8433 17.0213 59.2353 16.68C58.6379 16.328 58.1633 15.8427 57.8113 15.224C57.4699 14.5947 57.2993 13.864 57.2993 13.032C57.2993 12.2 57.4699 11.4747 57.8113 10.856C58.1633 10.2267 58.6379 9.74133 59.2353 9.4C59.8433 9.048 60.5259 8.872 61.2833 8.872C62.2219 8.872 63.0113 9.11733 63.6513 9.608C64.3019 10.0987 64.7126 10.7547 64.8833 11.576H63.5073C63.4006 11.0853 63.1393 10.7067 62.7233 10.44C62.3073 10.1627 61.8219 10.024 61.2673 10.024C60.8193 10.024 60.3979 10.136 60.0033 10.36C59.6086 10.584 59.2886 10.92 59.0433 11.368C58.7979 11.816 58.6753 12.3707 58.6753 13.032C58.6753 13.6933 58.7979 14.248 59.0433 14.696C59.2886 15.144 59.6086 15.4853 60.0033 15.72C60.3979 15.944 60.8193 16.056 61.2673 16.056C61.8219 16.056 62.3073 15.9227 62.7233 15.656C63.1393 15.3787 63.4006 14.9893 63.5073 14.488H64.8833C64.7233 15.288 64.3179 15.9387 63.6673 16.44C63.0166 16.9413 62.2219 17.192 61.2833 17.192ZM66.7603 17V5.48H68.1043V10.424C68.3709 9.93333 68.7496 9.55467 69.2403 9.288C69.7309 9.01067 70.2643 8.872 70.8403 8.872C71.7576 8.872 72.4936 9.16 73.0483 9.736C73.6029 10.3013 73.8802 11.176 73.8802 12.36V17H72.5523V12.504C72.5523 10.8507 71.8856 10.024 70.5523 10.024C69.8589 10.024 69.2776 10.2747 68.8083 10.776C68.3389 11.2667 68.1043 11.9707 68.1043 12.888V17H66.7603Z" fill="#B1B5C3"/>
</svg>
