<svg width="33" height="32" viewBox="0 0 33 32" fill="none" xmlns="http://www.w3.org/2000/svg">
<rect x="0.25" width="32" height="32" rx="8" fill="#7B6F00"/>
<g clip-path="url(#clip0_9_1373)">
<path d="M23.5834 22V20.6667C23.5829 20.0758 23.3863 19.5019 23.0243 19.0349C22.6623 18.5679 22.1555 18.2344 21.5834 18.0867" stroke="#FFEF60" stroke-width="2" stroke-linecap="round" stroke-linejoin="round"/>
<path d="M19.5833 22V20.6667C19.5833 19.9594 19.3023 19.2811 18.8022 18.781C18.3021 18.281 17.6239 18 16.9166 18H11.5833C10.876 18 10.1978 18.281 9.69767 18.781C9.19758 19.2811 8.91663 19.9594 8.91663 20.6667V22" stroke="#FFEF60" stroke-width="2" stroke-linecap="round" stroke-linejoin="round"/>
<path d="M18.9166 10.0867C19.4902 10.2335 19.9987 10.5671 20.3617 11.0349C20.7248 11.5026 20.9219 12.0779 20.9219 12.67C20.9219 13.2621 20.7248 13.8374 20.3617 14.3051C19.9987 14.7729 19.4902 15.1065 18.9166 15.2533" stroke="#FFEF60" stroke-width="2" stroke-linecap="round" stroke-linejoin="round"/>
<path d="M14.25 15.3333C15.7228 15.3333 16.9167 14.1394 16.9167 12.6667C16.9167 11.1939 15.7228 10 14.25 10C12.7773 10 11.5834 11.1939 11.5834 12.6667C11.5834 14.1394 12.7773 15.3333 14.25 15.3333Z" stroke="#FFEF60" stroke-width="2" stroke-linecap="round" stroke-linejoin="round"/>
</g>
<defs>
<clipPath id="clip0_9_1373">
<rect width="16" height="16" fill="white" transform="translate(8.25 8)"/>
</clipPath>
</defs>
</svg>
