<svg width="66" height="42" viewBox="0 0 66 42" fill="none" xmlns="http://www.w3.org/2000/svg">
<rect x="22.8002" y="2.54751" width="20.3801" height="20.3801" stroke="url(#paint0_linear_34_3435)" stroke-width="5.09503"/>
<g clip-path="url(#clip0_34_3435)">
<rect x="22.8002" y="2.54751" width="20.3801" height="20.3801" stroke="url(#paint1_linear_34_3435)" stroke-width="5.09503"/>
</g>
<g clip-path="url(#clip1_34_3435)">
<rect x="22.8002" y="2.54751" width="20.3801" height="20.3801" stroke="url(#paint2_linear_34_3435)" stroke-width="5.09503"/>
</g>
<path d="M2.12707 30.9242H4.26161L6.68722 38.4847L9.11283 30.9242H11.2474L7.55298 41.791H5.82147L2.12707 30.9242ZM0.828439 30.9242H3.03761L3.4481 39.2534V41.791H0.828439V30.9242ZM10.3368 30.9242H12.5535V41.791H9.92635V39.2534L10.3368 30.9242ZM15.9941 30.9242L17.9943 35.6411L20.002 30.9242H22.8231L19.3303 37.8876V41.791H16.6658V37.8876L13.1655 30.9242H15.9941ZM34.6079 39.7758V41.791H29.1148V39.7758H34.6079ZM30.0477 30.9242V41.791H27.4281V30.9242H30.0477ZM44.4297 36.1411V36.5815C44.4297 37.4124 44.3128 38.1588 44.0789 38.8205C43.8501 39.4773 43.5242 40.0395 43.1012 40.5072C42.6783 40.97 42.1783 41.3257 41.6011 41.5745C41.0239 41.8183 40.387 41.9402 39.6905 41.9402C38.9889 41.9402 38.347 41.8183 37.7649 41.5745C37.1877 41.3257 36.6852 40.97 36.2573 40.5072C35.8344 40.0395 35.506 39.4773 35.2721 38.8205C35.0432 38.1588 34.9288 37.4124 34.9288 36.5815V36.1411C34.9288 35.3102 35.0432 34.5639 35.2721 33.9021C35.506 33.2404 35.8319 32.6781 36.2498 32.2154C36.6727 31.7477 37.1728 31.3919 37.75 31.1481C38.3321 30.8993 38.974 30.775 39.6755 30.775C40.3721 30.775 41.009 30.8993 41.5862 31.1481C42.1683 31.3919 42.6708 31.7477 43.0938 32.2154C43.5167 32.6781 43.8451 33.2404 44.0789 33.9021C44.3128 34.5639 44.4297 35.3102 44.4297 36.1411ZM41.7727 36.5815V36.1262C41.7727 35.5889 41.7255 35.1162 41.6309 34.7082C41.5414 34.2952 41.407 33.9494 41.2279 33.6708C41.0488 33.3921 40.8274 33.1831 40.5637 33.0438C40.3049 32.8995 40.0089 32.8274 39.6755 32.8274C39.3272 32.8274 39.0237 32.8995 38.765 33.0438C38.5063 33.1831 38.2898 33.3921 38.1157 33.6708C37.9415 33.9494 37.8097 34.2952 37.7201 34.7082C37.6355 35.1162 37.5932 35.5889 37.5932 36.1262V36.5815C37.5932 37.1139 37.6355 37.5866 37.7201 37.9995C37.8097 38.4075 37.9415 38.7533 38.1157 39.037C38.2948 39.3206 38.5137 39.5345 38.7725 39.6788C39.0362 39.8231 39.3422 39.8952 39.6905 39.8952C40.0238 39.8952 40.3199 39.8231 40.5786 39.6788C40.8373 39.5345 41.0538 39.3206 41.2279 39.037C41.407 38.7533 41.5414 38.4075 41.6309 37.9995C41.7255 37.5866 41.7727 37.1139 41.7727 36.5815ZM54.677 35.9844V40.4475C54.4929 40.6515 54.2093 40.8705 53.8262 41.1043C53.448 41.3332 52.9704 41.5297 52.3932 41.6939C51.816 41.8581 51.1368 41.9402 50.3557 41.9402C49.6342 41.9402 48.9799 41.8258 48.3928 41.5969C47.8057 41.3631 47.3007 41.0222 46.8777 40.5744C46.4598 40.1216 46.1364 39.5693 45.9075 38.9175C45.6836 38.2608 45.5716 37.5094 45.5716 36.6636V36.059C45.5716 35.2132 45.6861 34.4619 45.9149 33.8051C46.1438 33.1483 46.4647 32.596 46.8777 32.1482C47.2957 31.6954 47.7858 31.3521 48.348 31.1183C48.9152 30.8844 49.5372 30.7675 50.2139 30.7675C51.214 30.7675 52.0275 30.9267 52.6544 31.2451C53.2813 31.5586 53.7565 31.994 54.0799 32.5512C54.4033 33.1035 54.5999 33.7429 54.6695 34.4693H52.1544C52.1046 34.1111 52.0101 33.8076 51.8707 33.5588C51.7364 33.305 51.5424 33.1135 51.2886 32.9841C51.0348 32.8498 50.7065 32.7826 50.3034 32.7826C49.99 32.7826 49.7039 32.8498 49.4451 32.9841C49.1914 33.1185 48.9749 33.3225 48.7958 33.5961C48.6167 33.8648 48.4774 34.2031 48.3779 34.6111C48.2833 35.0191 48.2361 35.4968 48.2361 36.0441V36.6636C48.2361 37.2059 48.2808 37.6811 48.3704 38.0891C48.4649 38.4971 48.6043 38.8379 48.7884 39.1116C48.9774 39.3803 49.2163 39.5843 49.5048 39.7236C49.7984 39.8579 50.1442 39.9251 50.5423 39.9251C50.8209 39.9251 51.0597 39.9027 51.2587 39.8579C51.4578 39.8082 51.622 39.7485 51.7513 39.6788C51.8857 39.6042 51.9877 39.5345 52.0573 39.4698V37.7831H50.2363V35.9844H54.677ZM65.4019 36.1411V36.5815C65.4019 37.4124 65.285 38.1588 65.0511 38.8205C64.8223 39.4773 64.4964 40.0395 64.0734 40.5072C63.6505 40.97 63.1505 41.3257 62.5733 41.5745C61.9961 41.8183 61.3592 41.9402 60.6627 41.9402C59.9611 41.9402 59.3192 41.8183 58.7371 41.5745C58.1599 41.3257 57.6574 40.97 57.2295 40.5072C56.8066 40.0395 56.4782 39.4773 56.2443 38.8205C56.0154 38.1588 55.901 37.4124 55.901 36.5815V36.1411C55.901 35.3102 56.0154 34.5639 56.2443 33.9021C56.4782 33.2404 56.8041 32.6781 57.222 32.2154C57.645 31.7477 58.145 31.3919 58.7222 31.1481C59.3043 30.8993 59.9462 30.775 60.6477 30.775C61.3443 30.775 61.9812 30.8993 62.5584 31.1481C63.1405 31.3919 63.6431 31.7477 64.066 32.2154C64.4889 32.6781 64.8173 33.2404 65.0511 33.9021C65.285 34.5639 65.4019 35.3102 65.4019 36.1411ZM62.745 36.5815V36.1262C62.745 35.5889 62.6977 35.1162 62.6031 34.7082C62.5136 34.2952 62.3792 33.9494 62.2001 33.6708C62.021 33.3921 61.7996 33.1831 61.5359 33.0438C61.2771 32.8995 60.9811 32.8274 60.6477 32.8274C60.2994 32.8274 59.9959 32.8995 59.7372 33.0438C59.4785 33.1831 59.262 33.3921 59.0879 33.6708C58.9137 33.9494 58.7819 34.2952 58.6923 34.7082C58.6077 35.1162 58.5654 35.5889 58.5654 36.1262V36.5815C58.5654 37.1139 58.6077 37.5866 58.6923 37.9995C58.7819 38.4075 58.9137 38.7533 59.0879 39.037C59.267 39.3206 59.4859 39.5345 59.7447 39.6788C60.0084 39.8231 60.3144 39.8952 60.6627 39.8952C60.996 39.8952 61.2921 39.8231 61.5508 39.6788C61.8095 39.5345 62.026 39.3206 62.2001 39.037C62.3792 38.7533 62.5136 38.4075 62.6031 37.9995C62.6977 37.5866 62.745 37.1139 62.745 36.5815Z" fill="white"/>
<defs>
<linearGradient id="paint0_linear_34_3435" x1="20.2527" y1="12.7376" x2="45.7278" y2="12.7376" gradientUnits="userSpaceOnUse">
<stop stop-color="#F12711"/>
<stop offset="1" stop-color="#F5AF19"/>
</linearGradient>
<linearGradient id="paint1_linear_34_3435" x1="20.2527" y1="12.7376" x2="45.7278" y2="12.7376" gradientUnits="userSpaceOnUse">
<stop stop-color="#40E0D0"/>
<stop offset="0.5" stop-color="#FF8C00"/>
<stop offset="1" stop-color="#FF0080"/>
</linearGradient>
<linearGradient id="paint2_linear_34_3435" x1="20.2527" y1="12.7376" x2="45.7278" y2="12.7376" gradientUnits="userSpaceOnUse">
<stop stop-color="#12C2E9"/>
<stop offset="0.5" stop-color="#C471ED"/>
<stop offset="1" stop-color="#F64F59"/>
</linearGradient>
<clipPath id="clip0_34_3435">
<rect width="12.7376" height="12.7376" fill="white" transform="translate(20.2527)"/>
</clipPath>
<clipPath id="clip1_34_3435">
<rect width="12.7376" height="12.7376" fill="white" transform="translate(32.9902 12.7376)"/>
</clipPath>
</defs>
</svg>
