<svg width="139" height="31" viewBox="0 0 139 31" fill="none" xmlns="http://www.w3.org/2000/svg">
<path d="M124.482 16.2029L132.118 29.0235C132.479 29.629 133.132 30 133.837 30H3.5C2.39543 30 1.5 29.1046 1.5 28V27.0755C1.5 25.9709 2.39543 25.0755 3.5 25.0755H4.36578C5.06931 25.0755 5.72108 24.7058 6.0822 24.1021L12.2161 13.8468C12.5225 13.3344 13.0418 12.9858 13.632 12.8961L19.1924 12.0509C19.6499 11.9814 20.0692 11.7554 20.3787 11.4114L24.6087 6.70996C25.4721 5.7504 27.0048 5.84782 27.7397 6.90897L32.9989 14.5029C33.3182 14.9639 33.8164 15.2697 34.372 15.3457L41.0303 16.2565C41.3392 16.2988 41.6536 16.2682 41.9485 16.1674L53.6525 12.1648C54.0722 12.0213 54.4323 11.7423 54.6761 11.3717L60.6483 2.29455C61.1497 1.5325 62.1031 1.20626 62.9662 1.50143L68.7582 3.48216C69.2351 3.64524 69.6328 3.98237 69.8718 4.42609L74.7092 13.4066C74.9595 13.8713 75.3834 14.2182 75.8884 14.3717L82.1026 16.2608C82.2339 16.3006 82.3606 16.3539 82.481 16.4198L89.3702 20.1893C89.9518 20.5076 90.6532 20.5169 91.2431 20.2143L95.6407 17.9585C96.2935 17.6236 97.0771 17.673 97.6827 18.0872L102.168 21.1552C102.747 21.5507 103.49 21.6148 104.127 21.3241L117.105 15.4067C117.365 15.2879 117.648 15.2264 117.934 15.2264H122.763C123.468 15.2264 124.121 15.5974 124.482 16.2029Z" fill="url(#paint0_linear_34_2801)"/>
<path d="M137.5 30H133.837C133.132 30 132.479 29.629 132.118 29.0235L124.482 16.2029C124.121 15.5974 123.468 15.2264 122.763 15.2264H117.934C117.648 15.2264 117.365 15.2879 117.105 15.4067L104.127 21.3241C103.49 21.6148 102.747 21.5507 102.168 21.1552L97.6827 18.0872C97.0771 17.673 96.2935 17.6236 95.6407 17.9585L91.2431 20.2144C90.6532 20.5169 89.9518 20.5076 89.3702 20.1893L82.481 16.4198C82.3606 16.3539 82.2339 16.3006 82.1026 16.2608L75.8884 14.3717C75.3834 14.2182 74.9595 13.8713 74.7092 13.4066L69.8718 4.42609C69.6328 3.98237 69.2351 3.64524 68.7582 3.48216L62.9662 1.50143C62.1031 1.20626 61.1496 1.5325 60.6483 2.29455L54.6761 11.3717C54.4323 11.7423 54.0722 12.0213 53.6525 12.1648L41.9485 16.1674C41.6536 16.2682 41.3392 16.2988 41.0303 16.2565L34.372 15.3457C33.8164 15.2697 33.3182 14.9639 32.9989 14.5029L27.7397 6.90897C27.0048 5.84782 25.4721 5.7504 24.6087 6.70996L20.3787 11.4114C20.0692 11.7554 19.6499 11.9814 19.1924 12.0509L13.632 12.8961C13.0418 12.9858 12.5225 13.3344 12.2161 13.8468L6.0822 24.1021C5.72108 24.7058 5.0693 25.0755 4.36579 25.0755H1.5" stroke="#D33535" stroke-width="2" stroke-linecap="round" stroke-linejoin="round"/>
<defs>
<linearGradient id="paint0_linear_34_2801" x1="68.7" y1="-52.0755" x2="69.0743" y2="30.0019" gradientUnits="userSpaceOnUse">
<stop stop-color="#EF466F"/>
<stop offset="1" stop-color="#EF466F" stop-opacity="0"/>
</linearGradient>
</defs>
</svg>
