<svg width="16" height="16" viewBox="0 0 16 16" fill="none" xmlns="http://www.w3.org/2000/svg">
<path d="M15.957 5.78112C15.8337 5.40174 15.4655 5.14092 14.9467 5.06555L10.8326 4.46769L8.9927 0.73973C8.7607 0.269598 8.39885 0 7.99997 0C7.60108 0 7.23927 0.269629 7.00726 0.73973L5.16745 4.46766L1.05333 5.06555C0.534507 5.14092 0.166282 5.40171 0.0429989 5.78109C-0.080253 6.16047 0.064343 6.58792 0.439724 6.9538L3.41671 9.85562L2.71392 13.9532C2.62151 14.4922 2.77848 14.8145 2.92642 14.99C3.09948 15.1952 3.35196 15.3083 3.63734 15.3083C3.85312 15.3083 4.08287 15.245 4.32016 15.1202L8 13.1856L11.6798 15.1201C11.9172 15.245 12.1469 15.3082 12.3627 15.3082H12.3628C12.6482 15.3082 12.9006 15.1952 13.0737 14.9899C13.2216 14.8145 13.3786 14.4921 13.2862 13.9531L12.5833 9.85562L15.5603 6.95383C15.9356 6.58792 16.0802 6.1605 15.957 5.78112ZM14.9059 6.28247L11.7524 9.3563C11.6419 9.46399 11.5915 9.61915 11.6176 9.77122L12.3621 14.1116C12.3861 14.2514 12.3739 14.3352 12.3626 14.3707C12.3343 14.3707 12.2539 14.3628 12.1161 14.2903L8.21816 12.2411C8.14984 12.2052 8.07494 12.1872 8.00003 12.1872C7.92512 12.1872 7.85018 12.2052 7.7819 12.2411L3.8839 14.2903C3.74627 14.3627 3.66587 14.3707 3.63755 14.3707C3.62621 14.3352 3.61405 14.2514 3.63802 14.1116L4.38247 9.77118C4.40854 9.61912 4.35813 9.46396 4.24766 9.35627L1.09417 6.28241C0.992482 6.18328 0.953075 6.10828 0.94145 6.07297C0.971607 6.05125 1.04758 6.01372 1.18817 5.99328L5.54624 5.35996C5.69893 5.33777 5.8309 5.24186 5.89918 5.10352L7.84809 1.15455C7.9109 1.02723 7.97006 0.966578 8.00006 0.944577C8.03006 0.966578 8.08925 1.02723 8.15206 1.15458L10.101 5.10352C10.1693 5.24186 10.3013 5.33777 10.4539 5.35996L14.8119 5.99328C14.9525 6.01369 15.0285 6.05122 15.0586 6.07297C15.0469 6.10831 15.0075 6.18335 14.9059 6.28247Z" fill="#B1B5C3"/>
</svg>
