<svg width="140" height="25" viewBox="0 0 140 25" fill="none" xmlns="http://www.w3.org/2000/svg">
<path d="M0.632 23.1807V6.38066H3.704V20.7807H11.144V23.1807H0.632ZM19.0237 23.4687C17.8237 23.4687 16.7597 23.2127 15.8317 22.7007C14.9037 22.1887 14.1757 21.4687 13.6477 20.5407C13.1197 19.6127 12.8557 18.5407 12.8557 17.3247C12.8557 16.0927 13.1117 14.9967 13.6237 14.0367C14.1517 13.0767 14.8717 12.3327 15.7837 11.8047C16.7117 11.2607 17.7997 10.9887 19.0477 10.9887C20.2157 10.9887 21.2477 11.2447 22.1437 11.7567C23.0397 12.2687 23.7357 12.9727 24.2317 13.8687C24.7437 14.7487 24.9997 15.7327 24.9997 16.8207C24.9997 16.9967 24.9917 17.1807 24.9757 17.3727C24.9757 17.5647 24.9677 17.7647 24.9517 17.9727H15.9037C15.9677 18.9007 16.2877 19.6287 16.8637 20.1567C17.4557 20.6847 18.1677 20.9487 18.9997 20.9487C19.6237 20.9487 20.1437 20.8127 20.5597 20.5407C20.9917 20.2527 21.3117 19.8847 21.5197 19.4367H24.6397C24.4157 20.1887 24.0397 20.8767 23.5117 21.5007C22.9997 22.1087 22.3597 22.5887 21.5917 22.9407C20.8397 23.2927 19.9837 23.4687 19.0237 23.4687ZM19.0477 13.4847C18.2957 13.4847 17.6317 13.7007 17.0557 14.1327C16.4797 14.5487 16.1117 15.1887 15.9517 16.0527H21.8797C21.8317 15.2687 21.5437 14.6447 21.0157 14.1807C20.4877 13.7167 19.8317 13.4847 19.0477 13.4847ZM32.6765 23.1807C31.4285 23.1807 30.4285 22.8767 29.6765 22.2687C28.9245 21.6607 28.5485 20.5807 28.5485 19.0287V13.8447H26.5085V11.2767H28.5485L28.9085 8.08466H31.6205V11.2767H34.8365V13.8447H31.6205V19.0527C31.6205 19.6287 31.7405 20.0287 31.9805 20.2527C32.2365 20.4607 32.6685 20.5647 33.2765 20.5647H34.7645V23.1807H32.6765ZM37.1381 10.0767L36.8501 5.06066H39.5381L39.2261 10.0767H37.1381ZM46.9409 23.4687C45.8849 23.4687 44.9569 23.3007 44.1569 22.9647C43.3569 22.6127 42.7169 22.1327 42.2369 21.5247C41.7569 20.9167 41.4689 20.2127 41.3729 19.4127H44.4689C44.5649 19.8767 44.8209 20.2767 45.2369 20.6127C45.6689 20.9327 46.2209 21.0927 46.8929 21.0927C47.5649 21.0927 48.0529 20.9567 48.3569 20.6847C48.6769 20.4127 48.8369 20.1007 48.8369 19.7487C48.8369 19.2367 48.6129 18.8927 48.1649 18.7167C47.7169 18.5247 47.0929 18.3407 46.2929 18.1647C45.7809 18.0527 45.2609 17.9167 44.7329 17.7567C44.2049 17.5967 43.7169 17.3967 43.2689 17.1567C42.8369 16.9007 42.4849 16.5807 42.2129 16.1967C41.9409 15.7967 41.8049 15.3087 41.8049 14.7327C41.8049 13.6767 42.2209 12.7887 43.0529 12.0687C43.9009 11.3487 45.0849 10.9887 46.6049 10.9887C48.0129 10.9887 49.1329 11.3167 49.9649 11.9727C50.8129 12.6287 51.3169 13.5327 51.4769 14.6847H48.5729C48.3969 13.8047 47.7329 13.3647 46.5809 13.3647C46.0049 13.3647 45.5569 13.4767 45.2369 13.7007C44.9329 13.9247 44.7809 14.2047 44.7809 14.5407C44.7809 14.8927 45.0129 15.1727 45.4769 15.3807C45.9409 15.5887 46.5569 15.7807 47.3249 15.9567C48.1569 16.1487 48.9169 16.3647 49.6049 16.6047C50.3089 16.8287 50.8689 17.1727 51.2849 17.6367C51.7009 18.0847 51.9089 18.7327 51.9089 19.5807C51.9249 20.3167 51.7329 20.9807 51.3329 21.5727C50.9329 22.1647 50.3569 22.6287 49.6049 22.9647C48.8529 23.3007 47.9649 23.4687 46.9409 23.4687ZM65.6531 23.1807C64.4051 23.1807 63.4051 22.8767 62.6531 22.2687C61.9011 21.6607 61.5251 20.5807 61.5251 19.0287V13.8447H59.4851V11.2767H61.5251L61.8851 8.08466H64.5971V11.2767H67.8131V13.8447H64.5971V19.0527C64.5971 19.6287 64.7171 20.0287 64.9571 20.2527C65.2131 20.4607 65.6451 20.5647 66.2531 20.5647H67.7411V23.1807H65.6531ZM74.5546 23.4687C73.5306 23.4687 72.6906 23.3087 72.0346 22.9887C71.3786 22.6527 70.8906 22.2127 70.5706 21.6687C70.2506 21.1247 70.0906 20.5247 70.0906 19.8687C70.0906 18.7647 70.5226 17.8687 71.3866 17.1807C72.2506 16.4927 73.5466 16.1487 75.2746 16.1487H78.2986V15.8607C78.2986 15.0447 78.0666 14.4447 77.6026 14.0607C77.1386 13.6767 76.5626 13.4847 75.8746 13.4847C75.2506 13.4847 74.7066 13.6367 74.2426 13.9407C73.7786 14.2287 73.4906 14.6607 73.3786 15.2367H70.3786C70.4586 14.3727 70.7466 13.6207 71.2426 12.9807C71.7546 12.3407 72.4106 11.8527 73.2106 11.5167C74.0106 11.1647 74.9066 10.9887 75.8986 10.9887C77.5946 10.9887 78.9306 11.4127 79.9066 12.2607C80.8826 13.1087 81.3706 14.3087 81.3706 15.8607V23.1807H78.7546L78.4666 21.2607C78.1146 21.9007 77.6186 22.4287 76.9786 22.8447C76.3546 23.2607 75.5466 23.4687 74.5546 23.4687ZM75.2506 21.0687C76.1306 21.0687 76.8106 20.7807 77.2906 20.2047C77.7866 19.6287 78.0986 18.9167 78.2266 18.0687H75.6106C74.7946 18.0687 74.2106 18.2207 73.8586 18.5247C73.5066 18.8127 73.3306 19.1727 73.3306 19.6047C73.3306 20.0687 73.5066 20.4287 73.8586 20.6847C74.2106 20.9407 74.6746 21.0687 75.2506 21.0687ZM84.3022 23.1807V5.90066H87.3742V23.1807H84.3022ZM90.5131 23.1807V5.90066H93.5851V16.1007L97.8091 11.2767H101.457L96.5851 16.7007L102.249 23.1807H98.4091L93.5851 17.2047V23.1807H90.5131ZM104.802 17.8767L104.466 6.38066H107.754L107.394 17.8767H104.802ZM106.17 23.3487C105.594 23.3487 105.122 23.1727 104.754 22.8207C104.402 22.4687 104.226 22.0447 104.226 21.5487C104.226 21.0367 104.402 20.6047 104.754 20.2527C105.122 19.9007 105.594 19.7247 106.17 19.7247C106.714 19.7247 107.162 19.9007 107.514 20.2527C107.882 20.6047 108.066 21.0367 108.066 21.5487C108.066 22.0447 107.882 22.4687 107.514 22.8207C107.162 23.1727 106.714 23.3487 106.17 23.3487ZM115.414 24.8607H139.414V0.860664H115.414V24.8607Z" fill="white"/>
</svg>
